<mxfile host="65bd71144e">
    <diagram id="sScQfyQ1DTpm4UMXpBnr" name="Page-1">
        <mxGraphModel dx="956" dy="418" grid="1" gridSize="10" guides="1" tooltips="1" connect="1" arrows="1" fold="1" page="1" pageScale="1" pageWidth="850" pageHeight="1100" math="0" shadow="0">
            <root>
                <mxCell id="0"/>
                <mxCell id="1" parent="0"/>
                <mxCell id="16" value="" style="rounded=0;whiteSpace=wrap;html=1;" vertex="1" parent="1">
                    <mxGeometry x="180" y="50" width="380" height="340" as="geometry"/>
                </mxCell>
                <mxCell id="3" value="" style="whiteSpace=wrap;html=1;shape=mxgraph.basic.document" vertex="1" parent="1">
                    <mxGeometry x="210" y="132" width="80" height="60" as="geometry"/>
                </mxCell>
                <mxCell id="4" value="Terraform" style="whiteSpace=wrap;html=1;shape=mxgraph.basic.document" vertex="1" parent="1">
                    <mxGeometry x="220" y="142" width="80" height="60" as="geometry"/>
                </mxCell>
                <mxCell id="5" value="" style="whiteSpace=wrap;html=1;shape=mxgraph.basic.document" vertex="1" parent="1">
                    <mxGeometry x="210" y="222" width="80" height="60" as="geometry"/>
                </mxCell>
                <mxCell id="6" value="Dockerfile" style="whiteSpace=wrap;html=1;shape=mxgraph.basic.document" vertex="1" parent="1">
                    <mxGeometry x="220" y="232" width="80" height="60" as="geometry"/>
                </mxCell>
                <mxCell id="7" value="" style="whiteSpace=wrap;html=1;shape=mxgraph.basic.document" vertex="1" parent="1">
                    <mxGeometry x="440" y="137" width="80" height="60" as="geometry"/>
                </mxCell>
                <mxCell id="8" value="Helm&lt;br&gt;Charts" style="whiteSpace=wrap;html=1;shape=mxgraph.basic.document" vertex="1" parent="1">
                    <mxGeometry x="450" y="147" width="80" height="60" as="geometry"/>
                </mxCell>
                <mxCell id="9" value="" style="whiteSpace=wrap;html=1;shape=mxgraph.basic.document" vertex="1" parent="1">
                    <mxGeometry x="440" y="227" width="80" height="60" as="geometry"/>
                </mxCell>
                <mxCell id="10" value="ARM&lt;br&gt;Templates" style="whiteSpace=wrap;html=1;shape=mxgraph.basic.document" vertex="1" parent="1">
                    <mxGeometry x="450" y="237" width="80" height="60" as="geometry"/>
                </mxCell>
                <mxCell id="11" value="" style="whiteSpace=wrap;html=1;shape=mxgraph.basic.document" vertex="1" parent="1">
                    <mxGeometry x="320" y="67" width="80" height="60" as="geometry"/>
                </mxCell>
                <mxCell id="12" value="Cloud&lt;br&gt;Formation" style="whiteSpace=wrap;html=1;shape=mxgraph.basic.document" vertex="1" parent="1">
                    <mxGeometry x="330" y="77" width="80" height="60" as="geometry"/>
                </mxCell>
                <mxCell id="13" value="" style="whiteSpace=wrap;html=1;shape=mxgraph.basic.document" vertex="1" parent="1">
                    <mxGeometry x="330" y="297" width="80" height="60" as="geometry"/>
                </mxCell>
                <mxCell id="14" value="Serverless&lt;br&gt;Frameworks" style="whiteSpace=wrap;html=1;shape=mxgraph.basic.document" vertex="1" parent="1">
                    <mxGeometry x="340" y="307" width="80" height="60" as="geometry"/>
                </mxCell>
                <mxCell id="15" value="Checkov&lt;br&gt;2.0" style="ellipse;whiteSpace=wrap;html=1;aspect=fixed;" vertex="1" parent="1">
                    <mxGeometry x="320" y="162" width="100" height="100" as="geometry"/>
                </mxCell>
            </root>
        </mxGraphModel>
    </diagram>
</mxfile>